<svg width="100" height="32" viewBox="0 0 100 32" fill="none" xmlns="http://www.w3.org/2000/svg">
<path d="M13.4128 11.2324C14.388 11.2324 15.8337 6.79229 15.8337 3.6763C15.8337 1.99276 15.4056 0.695088 14.2691 0.695088C13.426 0.695088 12.1838 1.4166 10.4184 3.22172C8.8802 4.80746 4.04102 9.66779 1.7549 15.8443C0.962021 18.0247 0.39115 20.1496 0.39115 22.0076C0.347123 23.1844 0.648466 24.3485 1.25803 25.3561C1.48651 25.7282 1.81046 26.0323 2.19623 26.2368C2.58199 26.4413 3.01548 26.5387 3.45165 26.519C8.5604 26.519 18.4132 15.3659 18.6563 15.0197C18.7002 14.9576 18.7559 14.9048 18.8204 14.8644C18.8848 14.824 18.9566 14.7968 19.0316 14.7845C19.1929 14.7845 19.2959 14.9193 19.2959 15.1043C19.2977 15.1496 19.2932 15.1949 19.2827 15.2391C19.2431 15.2787 9.02555 27.0185 3.5045 27.0185C3.01038 27.0365 2.52044 26.9219 2.08548 26.6868C1.65052 26.4516 1.28636 26.1045 1.03074 25.6812C0.30922 24.558 0 23.2207 0 21.7353C0 19.8642 0.494225 17.771 1.27124 15.6566C3.58379 9.41142 8.08996 4.55638 9.65457 2.95478C11.7002 0.856303 13.2119 0 14.2532 0C15.7121 0 16.3121 1.6439 16.3121 3.87716C16.3121 6.1765 15.6831 9.10484 14.7263 11.4861C14.6338 11.835 14.1977 12.0464 13.8172 12.0464C13.4815 12.0464 13.1749 11.872 13.1749 11.5178C13.1782 11.3932 13.2051 11.2703 13.2542 11.1557C13.3004 11.1933 13.3547 11.2196 13.4128 11.2324V11.2324Z" fill="url(#paint0_linear)"/>
<path d="M19.9778 13.463C19.9569 13.4074 19.9479 13.3479 19.9514 13.2886C19.9484 13.2379 19.958 13.1873 19.9792 13.1412C20.0004 13.0952 20.0326 13.055 20.073 13.0243C20.1325 12.9731 20.2085 12.9449 20.287 12.945C20.3329 12.9486 20.3781 12.9574 20.4218 12.9714C20.5498 13.0361 20.6603 13.1306 20.744 13.247C20.8277 13.3634 20.8822 13.4982 20.9028 13.6401C21.2094 13.9757 21.6508 14.2559 22.5467 14.322C23.0145 14.3616 23.4427 14.3748 23.818 14.3748C25.2214 14.3748 25.9587 14.1607 25.9587 14.1475H26.0248C26.0578 14.148 26.0903 14.1554 26.1201 14.1694C26.15 14.1833 26.1766 14.2034 26.198 14.2284C26.2195 14.2534 26.2355 14.2827 26.2448 14.3143C26.2541 14.3459 26.2566 14.3792 26.2521 14.4118C26.2559 14.476 26.2399 14.5397 26.2064 14.5946C26.1728 14.6494 26.1233 14.6926 26.0645 14.7184C25.525 14.8014 24.9794 14.8367 24.4338 14.8241C23.9528 14.8241 23.3643 14.7977 22.6683 14.7448C22.1115 14.7145 21.5641 14.5875 21.0509 14.3695C21.0376 15.5192 20.6095 17.3243 19.6078 18.0326C19.4209 18.1567 19.2031 18.2262 18.9788 18.2335C18.8783 18.2377 18.7781 18.2197 18.6854 18.1806C18.2969 18.0194 18.1569 17.6335 18.1569 17.179C18.1841 16.5925 18.3203 16.0162 18.5586 15.4796C18.7727 14.9985 19.4942 13.8357 20.0016 13.5132C19.9892 13.499 19.981 13.4816 19.9778 13.463V13.463ZM19.029 15.7624C18.8492 16.2196 18.7414 16.7019 18.7092 17.1922C18.7092 17.4195 18.7489 17.5939 18.8969 17.6467C18.9218 17.6576 18.9491 17.6621 18.9762 17.66C19.6052 17.66 20.3796 14.7845 20.3796 14.0497V13.9705C20.346 13.9474 20.315 13.9208 20.287 13.8912C19.7902 14.2797 19.2695 15.202 19.0317 15.765L19.029 15.7624Z" fill="url(#paint1_linear)"/>
<path d="M26.1675 16.1931C26.9154 15.2179 27.6792 14.3748 28.266 14.3748C28.5303 14.3748 28.7602 14.536 28.9346 14.9034C29.524 16.2539 30.2323 16.7746 31.049 16.7746C32.1061 16.7746 33.3615 15.8786 34.794 14.8347C34.8147 14.8087 34.8414 14.7879 34.8717 14.7741C34.902 14.7604 34.9351 14.754 34.9684 14.7554C35.0385 14.7554 35.1057 14.7832 35.1553 14.8328C35.2048 14.8824 35.2327 14.9496 35.2327 15.0197C35.2311 15.0573 35.2188 15.0937 35.1973 15.1246C35.1757 15.1555 35.1459 15.1796 35.1111 15.1941C34.0539 16.0372 32.4365 17.2397 30.9802 17.2397C30.0711 17.2397 29.2148 16.7719 28.6016 15.4082C28.562 15.2893 28.4959 15.2338 28.414 15.2338C27.7321 15.2338 25.7711 17.9877 25.7393 18.2678C25.6788 18.3554 25.5965 18.4258 25.5007 18.4721C25.4048 18.5185 25.2985 18.5391 25.1923 18.5321C25.0046 18.5321 24.8434 18.4528 24.8434 18.2678V18.2203L26.1411 13.0322C26.1627 12.9143 26.2279 12.8089 26.3236 12.7367C26.4193 12.6646 26.5387 12.631 26.658 12.6426C26.7773 12.6543 26.8878 12.7103 26.9678 12.7995C27.0478 12.8888 27.0914 13.0049 27.0899 13.1247V13.1512L26.1675 16.1931Z" fill="url(#paint2_linear)"/>
<path d="M58.5167 22.8242C59.7483 19.1744 60.6311 15.9104 61.3262 13.3705C57.8084 13.6771 54.0529 14.4541 50.5351 14.7871C49.3194 16.7534 48.1407 18.7515 47.0174 20.7654C46.8826 21.4208 46.7108 22.0631 46.5232 22.6894C45.7303 25.3773 45.3074 27.2088 44.4511 27.8378C44.3276 27.9455 44.173 28.0112 44.0098 28.0255C43.8089 28.0255 43.6768 27.8378 43.6768 27.4229C43.6768 26.4873 44.3983 24.3598 46.5655 20.6702C46.872 19.5602 47.2341 18.2758 47.2341 17.0864C47.2512 16.4239 47.1041 15.7675 46.806 15.1756C45.0405 15.3236 43.357 15.3897 41.98 15.3897C39.9872 15.3897 38.6103 15.2285 38.5046 14.8955C38.4773 14.8462 38.4636 14.7906 38.4649 14.7343C38.4649 14.0127 41.018 12.7547 43.3728 12.7547C44.7101 12.7547 45.9814 13.1564 46.6765 14.2797C47.9054 14.174 49.2031 14.0524 50.514 13.9308C53.4423 9.22377 56.6112 4.7044 58.5511 3.0605C58.6163 2.99517 58.688 2.93671 58.7652 2.88607C59.7536 2.11169 60.7183 1.56461 61.5191 1.42717C61.647 1.4014 61.7771 1.38813 61.9076 1.38753C63.3242 1.38753 63.7788 2.87285 63.7788 4.77046C63.7788 7.76488 62.6555 11.8033 62.3754 12.9001H62.8168C63.5118 12.9001 63.9268 12.9529 63.9664 13.0877V13.1141C63.9664 13.3547 63.4035 13.6216 62.0952 13.944C61.3341 16.6847 60.2901 19.9752 58.9237 23.8787C58.9105 24.143 58.6436 24.2805 58.3634 24.2805C58.0146 24.2805 57.6419 24.0928 57.6419 23.773V23.7334C57.7661 23.3184 58.3819 23.2259 58.5167 22.8242ZM43.6107 13.1987C41.4964 13.1987 39.1574 14.3748 39.1574 14.4277C39.197 14.5625 39.7335 14.6285 40.6295 14.6285C41.9007 14.6285 43.9067 14.507 46.2721 14.3088C45.6378 13.4921 44.6494 13.1987 43.6107 13.1987ZM43.986 27.1718C43.986 27.2247 43.9992 27.2379 44.0124 27.2379C44.2133 27.2379 45.1621 25.5253 46.058 22.5441L46.0845 22.4516C44.5436 25.3561 43.9939 26.8494 43.9939 27.185L43.986 27.1718ZM47.1416 15.1386C47.4119 15.7298 47.5491 16.373 47.5433 17.023C47.4996 17.8122 47.406 18.5978 47.2632 19.3752C48.1195 17.837 49.0155 16.3253 49.9378 14.8294C49.0024 14.8743 48.0709 14.9811 47.1496 15.1492L47.1416 15.1386ZM63.1207 4.30267C63.1207 2.87285 62.785 1.85532 61.8362 1.85532C61.7476 1.85771 61.6593 1.86654 61.5719 1.88176C60.8504 2.00333 59.9677 2.51077 59.0189 3.2455C58.966 3.29836 58.9105 3.33801 58.8312 3.40672C56.9812 4.99247 53.9366 9.28985 51.0769 13.8621C54.5127 13.5291 58.004 13.1009 61.4266 12.9397C61.6988 11.9671 63.1286 7.2733 63.1286 4.31852L63.1207 4.30267ZM63.4907 13.1987H63.4511C63.3321 13.1987 62.904 13.2251 62.2617 13.278L62.2221 13.426C63.089 13.2516 63.4907 13.2516 63.4907 13.1987Z" fill="url(#paint3_linear)"/>
<path d="M65.1082 17.6626C65.1082 17.7287 65.1214 17.7683 65.1611 17.7683C65.1733 17.7688 65.1855 17.7667 65.1969 17.7622C65.2083 17.7576 65.2186 17.7507 65.2271 17.7419C67.3415 15.054 68.4224 12.3133 69.7201 12.3133C69.8918 12.3168 70.0606 12.3583 70.2143 12.4349C70.3176 12.5125 70.4007 12.6137 70.4568 12.7301C70.5129 12.8464 70.5403 12.9745 70.5368 13.1036C70.5368 13.6322 70.2011 14.3457 69.802 15.5773C69.5833 15.9714 69.3865 16.3773 69.2127 16.7931L69.2259 16.8063C69.3871 16.8063 70.7508 15.0012 71.5781 15.0012H71.6441C72.659 15.3897 72.0591 17.3957 73.2087 17.3957C73.276 17.3975 73.3432 17.3931 73.4096 17.3825C74.0783 17.2741 75.8702 15.9659 76.8718 14.6285C76.8985 14.5824 76.9371 14.5442 76.9836 14.5182C77.0301 14.4921 77.0828 14.4791 77.1361 14.4805C77.337 14.4805 77.5511 14.655 77.5511 14.8003C77.5503 14.8329 77.5412 14.8648 77.5246 14.8928C76.1609 16.3491 74.1813 17.4723 73.4202 17.5939C73.3328 17.609 73.2445 17.6179 73.1559 17.6203C71.8344 17.6203 71.8979 15.6276 71.4988 15.6276C71.4724 15.6276 71.4591 15.6408 71.4327 15.654C70.4971 16.1482 69.4532 18.0088 68.8797 18.0749C68.7921 18.0865 68.7037 18.0909 68.6154 18.0881C68.2533 18.0881 67.9071 17.9692 67.9071 17.5595C67.9073 17.47 67.9206 17.3809 67.9467 17.2952C67.9467 17.282 69.6038 13.833 69.6038 12.8684C69.6144 12.7929 69.5955 12.7162 69.551 12.6543H69.5113C68.5757 12.6543 66.2077 18.1885 64.8043 18.8466C64.3365 18.8334 64.0299 18.7806 64.0299 18.1119C64.0394 17.7594 64.0891 17.4092 64.1779 17.068C64.5606 15.5204 65.0381 13.9979 65.6077 12.5089C65.6474 12.2446 66.0227 12.1204 66.3557 12.1204C66.6887 12.1204 66.9186 12.2129 66.9186 12.4138C66.9186 12.4402 66.9054 12.4666 66.9054 12.4931C66.9054 12.5195 65.1082 16.9147 65.1082 17.6626Z" fill="url(#paint4_linear)"/>
<path d="M78.0004 13.463C77.9794 13.4074 77.9704 13.3479 77.974 13.2886C77.9709 13.2382 77.9802 13.1878 78.0009 13.1418C78.0216 13.0957 78.0532 13.0554 78.0929 13.0243C78.1526 12.9733 78.2285 12.9452 78.307 12.945C78.3519 12.9487 78.3962 12.9576 78.4391 12.9714C78.5672 13.0359 78.6778 13.1304 78.7616 13.2468C78.8453 13.3632 78.8997 13.4981 78.9201 13.6401C79.2267 13.9757 79.6681 14.2559 80.564 14.322C81.0318 14.3616 81.46 14.3748 81.8353 14.3748C83.2387 14.3748 83.9734 14.1607 83.9734 14.1475H84.0474C84.0804 14.148 84.1128 14.1554 84.1427 14.1694C84.1726 14.1833 84.1991 14.2034 84.2206 14.2284C84.2421 14.2534 84.2581 14.2827 84.2674 14.3143C84.2767 14.3459 84.2792 14.3792 84.2747 14.4118C84.2789 14.476 84.2631 14.54 84.2295 14.5949C84.1959 14.6498 84.1461 14.6929 84.087 14.7184C83.5476 14.8014 83.002 14.8367 82.4564 14.8241C81.9754 14.8241 81.3869 14.7977 80.6909 14.7448C80.134 14.7146 79.5867 14.5876 79.0734 14.3695C79.0602 15.5192 78.6321 17.3243 77.6304 18.0326C77.4435 18.1568 77.2257 18.2264 77.0014 18.2335C76.9009 18.2378 76.8007 18.2197 76.708 18.1806C76.3195 18.0194 76.1794 17.6335 76.1794 17.179C76.2069 16.5925 76.3431 16.0162 76.5812 15.4796C76.7952 14.9985 77.5168 13.8357 78.0242 13.5132C78.0118 13.499 78.0036 13.4816 78.0004 13.463V13.463ZM77.0516 15.7624C76.8707 16.2194 76.7619 16.7017 76.7292 17.1922C76.7292 17.4195 76.7688 17.5939 76.9168 17.6467C76.9418 17.6576 76.969 17.6621 76.9961 17.66C77.6251 17.66 78.3995 14.7845 78.3995 14.0497V13.9705C78.3659 13.9474 78.3349 13.9208 78.307 13.8912C77.8128 14.2797 77.2921 15.202 77.0516 15.765V15.7624Z" fill="url(#paint5_linear)"/>
<path d="M84.3381 14.8558C84.8667 13.7458 85.6226 13.0375 86.2648 13.0375C86.4137 13.0414 86.5594 13.0811 86.6896 13.1533C86.8198 13.2256 86.9307 13.3282 87.0128 13.4524C87.507 14.5492 89.4865 14.7501 90.9771 14.7501C91.6326 14.7501 92.1929 14.7105 92.4757 14.6973C92.5858 14.6732 92.69 14.6274 92.7822 14.5625C92.8254 14.5498 92.8696 14.5409 92.9144 14.536C92.9937 14.536 93.0227 14.5757 93.0227 14.6153C93.0188 14.6742 92.9977 14.7306 92.962 14.7776C92.9263 14.8246 92.8776 14.8601 92.8219 14.8796C92.7558 14.9457 91.7383 15.1069 90.549 15.1069C89.0901 15.1069 87.3775 14.8664 86.6982 13.9308C86.6697 13.8853 86.631 13.847 86.5851 13.819C86.5393 13.791 86.4875 13.7741 86.434 13.7696C85.4851 13.7696 83.7329 17.956 83.7197 17.9692V17.9956C83.7197 18.1568 83.532 18.2229 83.3312 18.2229C83.0907 18.2229 82.8237 18.1304 82.8237 17.9956C82.8237 17.9692 82.8369 17.956 82.8369 17.9428L83.9734 13.1855C84.012 13.0781 84.0844 12.986 84.1797 12.9231C84.2749 12.8603 84.388 12.8299 84.502 12.8366C84.7663 12.8366 85.0094 12.9846 85.0094 13.2252V13.2516L84.3381 14.8558Z" fill="url(#paint6_linear)"/>
<path d="M95.1027 13.7987C95.1027 14.9219 93.2976 15.6487 92.9223 15.7914C92.9223 15.8707 92.9091 15.9659 92.9091 16.0557C92.894 16.3812 92.968 16.7047 93.1231 16.9913C93.2177 17.1238 93.3452 17.2294 93.4931 17.2975C93.641 17.3656 93.804 17.394 93.9662 17.3798C95.8163 17.3798 99.5031 14.5995 99.5164 14.5862C99.5628 14.5514 99.6195 14.5328 99.6776 14.5334C99.7616 14.5366 99.8414 14.5713 99.9011 14.6305C99.9608 14.6897 99.9961 14.7692 100 14.8532C99.9962 14.8903 99.9846 14.9263 99.9659 14.9586C99.9473 14.991 99.9219 15.019 99.8916 15.0408C99.8652 15.054 96.2682 17.6494 94.0772 17.6494C93.5011 17.6494 93.0201 17.475 92.7267 17.0204C92.4945 16.6774 92.3728 16.2716 92.3778 15.8575C92.4123 15.1229 92.701 14.4232 93.1945 13.8779C93.4055 13.6265 93.6586 13.4137 93.9424 13.2489C94.1012 13.1493 94.2837 13.0936 94.471 13.0877C94.562 13.085 94.6524 13.103 94.7353 13.1406C94.8346 13.1848 94.9197 13.2556 94.9813 13.3451C95.0429 13.4347 95.0785 13.5395 95.0842 13.648C95.0895 13.7062 95.1027 13.7458 95.1027 13.7987ZM94.286 13.7987C94.2869 13.7932 94.2866 13.7877 94.2849 13.7825C94.2832 13.7772 94.2803 13.7725 94.2764 13.7686C94.2726 13.7647 94.2678 13.7618 94.2626 13.7601C94.2573 13.7585 94.2518 13.7581 94.2464 13.759C93.9821 13.7987 93.7178 14.2876 93.1099 15.0963C93.9662 14.3616 94.286 13.9202 94.286 13.7987Z" fill="url(#paint7_linear)"/>
<path d="M16.2672 31.5247V27.592H17.7102C18.0352 27.5949 18.3472 27.7198 18.5843 27.942C18.8214 28.1642 18.9664 28.4675 18.9903 28.7915C19.0143 29.1156 18.9155 29.4369 18.7136 29.6915C18.5118 29.9462 18.2215 30.1156 17.9005 30.1662L18.9339 31.522H18.5877L17.5649 30.1821H16.5368V31.522L16.2672 31.5247ZM16.5315 29.9125H17.7102C17.9722 29.8992 18.219 29.7858 18.3997 29.5957C18.5803 29.4055 18.6811 29.1533 18.6811 28.891C18.6811 28.6288 18.5803 28.3765 18.3997 28.1864C18.219 27.9963 17.9722 27.8829 17.7102 27.8695H16.5394L16.5315 29.9125Z" fill="#758E65"/>
<path d="M22.6656 31.5353H20.287V27.6026H22.6656V27.8669H20.5513V29.9046H22.4013V30.1689H20.5513V31.2261H22.6656V31.5353Z" fill="#758E65"/>
<path d="M25.9191 31.2578C26.3106 31.2572 26.6899 31.1208 26.9921 30.8719L27.1665 31.086C26.8395 31.3522 26.4359 31.5068 26.0147 31.527C25.5935 31.5472 25.1769 31.432 24.8259 31.1983C24.4749 30.9646 24.208 30.6246 24.0642 30.2282C23.9203 29.8318 23.9072 29.3998 24.0267 28.9954C24.1186 28.6895 24.2836 28.4106 24.5076 28.1829C24.7316 27.9551 25.0077 27.7855 25.3121 27.6886C25.6165 27.5918 25.9399 27.5706 26.2543 27.627C26.5687 27.6834 26.8646 27.8156 27.1163 28.0123L26.9498 28.2263C26.7376 28.0611 26.489 27.9489 26.2247 27.899C25.9603 27.849 25.6879 27.8629 25.43 27.9393C25.1722 28.0158 24.9362 28.1526 24.7418 28.3385C24.5474 28.5244 24.4001 28.754 24.3122 29.0082C24.2243 29.2624 24.1982 29.5339 24.2363 29.8002C24.2743 30.0665 24.3753 30.3198 24.5309 30.5393C24.6864 30.7587 24.8921 30.9379 25.1307 31.0619C25.3694 31.186 25.6342 31.2513 25.9032 31.2525L25.9191 31.2578Z" fill="#758E65"/>
<path d="M30.5336 31.53H28.4377V27.5973H28.702V31.2525H30.5204L30.5336 31.53Z" fill="#758E65"/>
<path d="M31.8048 31.5247L33.417 27.5603L35.0027 31.5247H34.7094L34.3605 30.6763H32.4312L32.085 31.5247H31.8048ZM32.5554 30.4041H34.2654L33.417 28.2898L32.5554 30.4041Z" fill="#758E65"/>
<path d="M36.2793 31.5247V27.592H36.5436V31.5247H36.2793Z" fill="#758E65"/>
<path d="M39.4271 29.8042L41.0445 27.5471V31.5115H40.7802V28.3928L39.435 30.2693L38.1135 28.3981V31.5168H37.8492V27.5471L39.4271 29.8042Z" fill="#758E65"/>
<path d="M42.321 31.5247V27.592H42.5853V31.5247H42.321Z" fill="#758E65"/>
<path d="M44.1393 31.5247H43.875V27.5471L46.3276 30.7398V27.5973H46.5919V31.5458L44.1393 28.3532V31.5247Z" fill="#758E65"/>
<path d="M49.8349 31.5247C49.5221 31.5243 49.2139 31.4492 48.9361 31.3057C48.6582 31.1621 48.4186 30.9542 48.2373 30.6994C48.056 30.4445 47.9382 30.1501 47.8936 29.8405C47.8491 29.5309 47.8792 29.2151 47.9814 28.9195C48.0836 28.6239 48.2549 28.357 48.4811 28.141C48.7072 27.9249 48.9817 27.7661 49.2817 27.6776C49.5817 27.5891 49.8985 27.5735 50.2057 27.6322C50.5129 27.6909 50.8017 27.8221 51.048 28.0149L50.8815 28.229C50.6326 28.033 50.3338 27.9106 50.019 27.8759C49.7042 27.8411 49.3859 27.8953 49.1003 28.0323C48.8147 28.1693 48.5732 28.3837 48.4033 28.651C48.2334 28.9183 48.1419 29.228 48.139 29.5447C48.1362 29.8614 48.2223 30.1726 48.3874 30.4429C48.5526 30.7133 48.7902 30.9318 49.0733 31.0739C49.3564 31.216 49.6737 31.2758 49.9891 31.2467C50.3045 31.2175 50.6054 31.1005 50.8577 30.9089V29.6958H49.5019V29.4315H51.1352V31.049L51.0823 31.0886C50.7285 31.3768 50.2859 31.5336 49.8296 31.5326L49.8349 31.5247Z" fill="#758E65"/>
<path d="M55.7417 31.5247L57.3539 27.5603L58.9396 31.5247H58.6463L58.3053 30.6763H56.376L56.0324 31.5247H55.7417ZM56.4923 30.4041H58.2023L57.3539 28.2898L56.4923 30.4041Z" fill="#758E65"/>
<path d="M60.2189 31.5247V27.592H61.6619C61.9869 27.5949 62.2989 27.7198 62.536 27.942C62.7731 28.1642 62.918 28.4675 62.942 28.7915C62.9659 29.1156 62.8672 29.4369 62.6653 29.6915C62.4634 29.9462 62.1732 30.1156 61.8522 30.1662L62.8856 31.522H62.5394L61.5165 30.1821H60.4884V31.522L60.2189 31.5247ZM60.4832 29.9125H61.6566C61.9185 29.8992 62.1654 29.7858 62.346 29.5957C62.5267 29.4055 62.6275 29.1533 62.6275 28.891C62.6275 28.6288 62.5267 28.3765 62.346 28.1864C62.1654 27.9963 61.9185 27.8829 61.6566 27.8695H60.4832V29.9125Z" fill="#758E65"/>
<path d="M65.3303 27.8696H64.2256V27.6053H66.6914V27.8696H65.5946V31.5247H65.3303V27.8696Z" fill="#758E65"/>
<path d="M67.9705 31.5247V27.592H68.2348V31.5247H67.9705Z" fill="#758E65"/>
<path d="M70.431 31.2525C70.619 31.2537 70.802 31.1923 70.9512 31.0779C71.1004 30.9635 71.2072 30.8027 71.2548 30.6209C71.3023 30.439 71.288 30.2465 71.214 30.0737C71.1399 29.9009 71.0105 29.7577 70.846 29.6667L69.9448 29.1381C69.7875 29.0452 69.6651 28.9032 69.5962 28.734C69.5274 28.5647 69.5159 28.3776 69.5636 28.2013C69.6113 28.0249 69.7155 27.869 69.8602 27.7576C70.005 27.6461 70.1823 27.5852 70.365 27.5841H70.4522C70.5969 27.5843 70.739 27.6221 70.8646 27.694C70.9902 27.7658 71.0949 27.8691 71.1684 27.9938L70.9306 28.1338C70.8802 28.0524 70.8097 27.9854 70.726 27.9391C70.6422 27.8928 70.5479 27.8688 70.4522 27.8695H70.365C70.2442 27.8707 70.1271 27.9113 70.0316 27.9853C69.9362 28.0593 69.8676 28.1625 69.8364 28.2792C69.8055 28.3985 69.8146 28.5247 69.8624 28.6383C69.9101 28.7519 69.9938 28.8468 70.1007 28.9082L71.0019 29.4368C71.2163 29.5606 71.3837 29.7518 71.4782 29.9806C71.5727 30.2094 71.589 30.463 71.5245 30.702C71.46 30.941 71.3183 31.152 71.1215 31.3023C70.9248 31.4525 70.6839 31.5334 70.4363 31.5326C70.2624 31.5324 70.0908 31.4917 69.9353 31.4137C69.7798 31.3357 69.6446 31.2226 69.5404 31.0833L69.7597 30.9168C69.8384 31.0222 69.9404 31.1078 70.0579 31.167C70.1753 31.2262 70.3048 31.2572 70.4363 31.2578L70.431 31.2525Z" fill="#758E65"/>
<path d="M72.5321 31.5247L74.1443 27.5603L75.73 31.5247H75.4367L75.0957 30.6763H73.1664L72.8202 31.5247H72.5321ZM73.2827 30.4041H74.9927L74.1443 28.2898L73.2827 30.4041Z" fill="#758E65"/>
<path d="M77.2788 31.5247H77.0145V27.5471L79.4698 30.7398V27.5973H79.7341V31.5458L77.2788 28.3532V31.5247Z" fill="#758E65"/>
<path d="M81.0054 31.5247L82.6176 27.5603L84.2033 31.5247H83.9152L83.5743 30.6763H81.645L81.2987 31.5247H81.0054ZM81.756 30.4041H83.4659L82.6176 28.2898L81.756 30.4041Z" fill="#758E65"/>
<path d="M87.5836 31.53H85.4878V27.5973H85.7521V31.2525H87.5704L87.5836 31.53Z" fill="#758E65"/>
<defs>
<linearGradient id="paint0_linear" x1="9.64664" y1="27.0238" x2="9.64664" y2="0.0132145" gradientUnits="userSpaceOnUse">
<stop stop-color="#DFD18C"/>
<stop offset="0.4" stop-color="#C8B069"/>
<stop offset="1" stop-color="#A1772C"/>
</linearGradient>
<linearGradient id="paint1_linear" x1="2026.4" y1="1964.98" x2="2026.4" y2="1859.25" gradientUnits="userSpaceOnUse">
<stop stop-color="#DFD18C"/>
<stop offset="0.4" stop-color="#C8B069"/>
<stop offset="1" stop-color="#A1772C"/>
</linearGradient>
<linearGradient id="paint2_linear" x1="2908.39" y1="2194.14" x2="2908.39" y2="2062.96" gradientUnits="userSpaceOnUse">
<stop stop-color="#DFD18C"/>
<stop offset="0.4" stop-color="#C8B069"/>
<stop offset="1" stop-color="#A1772C"/>
</linearGradient>
<linearGradient id="paint3_linear" x1="9161.65" y1="10819.1" x2="9161.65" y2="8134.49" gradientUnits="userSpaceOnUse">
<stop stop-color="#DFD18C"/>
<stop offset="0.4" stop-color="#C8B069"/>
<stop offset="1" stop-color="#A1772C"/>
</linearGradient>
<linearGradient id="paint4_linear" x1="5903.41" y1="2510.57" x2="5903.41" y2="2339.39" gradientUnits="userSpaceOnUse">
<stop stop-color="#DFD18C"/>
<stop offset="0.4" stop-color="#C8B069"/>
<stop offset="1" stop-color="#A1772C"/>
</linearGradient>
<linearGradient id="paint5_linear" x1="3862.05" y1="1964.99" x2="3862.05" y2="1859.26" gradientUnits="userSpaceOnUse">
<stop stop-color="#DFD18C"/>
<stop offset="0.4" stop-color="#C8B069"/>
<stop offset="1" stop-color="#A1772C"/>
</linearGradient>
<linearGradient id="paint6_linear" x1="5147.96" y1="2000.54" x2="5147.96" y2="1890.7" gradientUnits="userSpaceOnUse">
<stop stop-color="#DFD18C"/>
<stop offset="0.4" stop-color="#C8B069"/>
<stop offset="1" stop-color="#A1772C"/>
</linearGradient>
<linearGradient id="paint7_linear" x1="4116.43" y1="1686.59" x2="4116.43" y2="1607.9" gradientUnits="userSpaceOnUse">
<stop stop-color="#DFD18C"/>
<stop offset="0.4" stop-color="#C8B069"/>
<stop offset="1" stop-color="#A1772C"/>
</linearGradient>
</defs>
</svg>
